SplineFontDB: 3.0
FontName: Experiment-Latin
FullName: Experiment-Latin
FamilyName: Experiment-Latin
Weight: Regular
Copyright: Copyright (c) 2015, Pathum Egodawatta
UComments: "2015-9-29: Created with FontForge (http://fontforge.org)"
Version: 0.001
ItalicAngle: 0
UnderlinePosition: 100
UnderlineWidth: 49
Ascent: 1000
Descent: 0
InvalidEm: 0
LayerCount: 4
Layer: 0 0 "Back" 1
Layer: 1 0 "Fore" 0
Layer: 2 0 "Back 2" 1
Layer: 3 0 "alt" 1
PreferredKerning: 4
XUID: [1021 779 -1439063335 14876943]
FSType: 0
OS2Version: 0
OS2_WeightWidthSlopeOnly: 0
OS2_UseTypoMetrics: 1
CreationTime: 1443542790
ModificationTime: 1454352379
PfmFamily: 17
TTFWeight: 400
TTFWidth: 5
LineGap: 122
VLineGap: 0
OS2TypoAscent: 129
OS2TypoAOffset: 1
OS2TypoDescent: 0
OS2TypoDOffset: 1
OS2TypoLinegap: 122
OS2WinAscent: 129
OS2WinAOffset: 1
OS2WinDescent: -161
OS2WinDOffset: 1
HheadAscent: 29
HheadAOffset: 1
HheadDescent: 183
HheadDOffset: 1
OS2CapHeight: 0
OS2XHeight: 0
OS2Vendor: 'PfEd'
Lookup: 260 1 0 "'abvm' Above Base Mark in Thaana lookup 0" { "'abvm' Above Base Mark in Thaana lookup 0-1"  } ['abvm' ('thaa' <'dflt' > ) ]
MarkAttachClasses: 1
DEI: 91125
Encoding: ISO8859-1
Compacted: 1
UnicodeInterp: none
NameList: Adobe Glyph List
DisplaySize: -96
AntiAlias: 1
FitToEm: 1
WinInfo: 0 15 8
BeginPrivate: 0
EndPrivate
Grid
-1000 852 m 0
 2000 852 l 1024
-1000 62 m 0
 2000 62 l 1024
-1000 766 m 4
 2000 766 l 1028
-1000 830 m 0
 2000 830 l 1024
  Named: "2"
-1000 1143 m 0
 2000 1143 l 1024
665 1500 m 0
 665 -500 l 1024
149 1500 m 0
 149 -500 l 1024
-1000 499 m 0
 2000 499 l 1024
-1000 612 m 0
 2000 612 l 1024
EndSplineSet
AnchorClass2: "thn_ubufibi" "'abvm' Above Base Mark in Thaana lookup 0-1" 
BeginChars: 258 32

StartChar: a
Encoding: 97 97 1
GlifName: uni0061
Width: 640
VWidth: 153
Flags: HW
LayerCount: 4
Back
SplineSet
442 113 m 1
 442 113 381.673828125 -13 232 -13 c 0
 121.016601562 -13 49 32 49 125 c 0
 49 226 118.645507812 299.19140625 274 334 c 0
 365.66015625 354.537109375 440 346 440 346 c 1
 440 259 l 1
 440 259 376.010742188 298.114257812 299 287 c 0
 221.944335938 275.87890625 177.048828125 214.778320312 175 167 c 0
 172.264648438 103.212890625 205.5625 62.1572265625 273 58 c 0
 345.994140625 53.5 408 117.8125 414 159 c 1
 442 113 l 1
411 457 m 0
 390 546 305.684570312 555.455078125 281 552 c 0
 222.329101562 543.787109375 189.434570312 505.999023438 158 473 c 1
 214.0078125 557 l 1
 192.530273438 511.861328125 175.614257812 460.471679688 170 392 c 1
 82.1396484375 383 l 1
 75.9345703125 450.1796875 79 539 79 539 c 1
 128 566 234.01953125 610.842773438 333 611.013671875 c 0
 468.748046875 611.248046875 523.344726562 574.502929688 526 443 c 0
 527.576171875 364.958984375 511 166 528 95 c 4
 537 57 557 38 599 43 c 5
 610 4 l 1
 588.807617188 -4.4453125 533.655273438 -34.1240234375 476 -16 c 0
 431.524414062 -2.0185546875 422.541015625 36.7685546875 417 96 c 1
 407 110 l 1
 419 199 424.706054688 398.912109375 411 457 c 0
EndSplineSet
Fore
SplineSet
442 119 m 1
 442 119 381.673828125 -13 232 -13 c 0
 131.016601562 -13 49 32 49 125 c 0
 49 226 118.645507812 296.19140625 274 331 c 0
 365.66015625 351.537109375 440 356 440 356 c 1
 440 273 l 1
 440 273 376.010742188 299.114257812 299 288 c 0
 221.944335938 276.87890625 177.048828125 217.778320312 175 160 c 0
 172.737304688 96.1943359375 210.5625 65.1572265625 268 61 c 0
 340.942382812 55.720703125 408 117.8125 414 159 c 1
 442 119 l 1
408 457 m 0
 387 546 325.684570312 561.455078125 281 553 c 0
 222.790039062 541.985351562 199.434570312 506.999023438 168 474 c 5
 224.0078125 557 l 1
 202.530273438 511.861328125 185.614257812 469.471679688 180 401 c 1
 92.1396484375 392 l 1
 85.9345703125 459.1796875 89 539 89 539 c 1
 138 566 244.01953125 610.842773438 343 611.013671875 c 0
 478.748046875 611.248046875 523.344726562 574.502929688 526 443 c 0
 527.576171875 364.958984375 511 172 528 101 c 0
 537 63 557 44 599 49 c 1
 610 10 l 1
 588.807617188 1.5546875 533.655273438 -28.1240234375 476 -10 c 0
 431.524414062 3.9814453125 422.541015625 42.7685546875 417 102 c 1
 407 116 l 1
 419 205 421.706054688 398.912109375 408 457 c 0
EndSplineSet
Layer: 2
SplineSet
422 113 m 1
 422 113 381.673828125 -13 232 -13 c 0
 121.016601562 -13 49 32 49 125 c 0
 49 226 118.645507812 299.19140625 274 334 c 0
 365.66015625 354.537109375 420 346 420 346 c 1
 420 269 l 1
 420 269 366.010742188 298.114257812 299 287 c 0
 222.1953125 274.26171875 187.981445312 214.729492188 185 167 c 0
 182.264648438 123.212890625 205.5625 62.1572265625 273 58 c 0
 345.994140625 53.5 388 117.8125 394 159 c 1
 422 113 l 1
391 457 m 0
 370 546 315.684570312 555.455078125 291 552 c 0
 232.329101562 543.787109375 199.434570312 505.999023438 168 473 c 1
 224.0078125 557 l 1
 202.530273438 511.861328125 185.614257812 460.471679688 180 392 c 1
 82.1396484375 383 l 1
 75.9345703125 450.1796875 79 539 79 539 c 1
 128 566 244.01953125 610.842773438 343 611.013671875 c 0
 478.748046875 611.248046875 523.344726562 574.502929688 526 443 c 0
 527.576171875 364.958984375 511 175 528 104 c 0
 537 66 557 47 599 52 c 1
 610 4 l 1
 588.807617188 -4.4453125 513.655273438 -34.1240234375 456 -16 c 0
 411.524414062 -2.0185546875 402.541015625 36.7685546875 397 96 c 1
 387 110 l 1
 399 199 404.706054688 398.912109375 391 457 c 0
EndSplineSet
Layer: 3
EndChar

StartChar: n
Encoding: 110 110 2
GlifName: uni006E_
Width: 827
VWidth: 79
Flags: HW
LayerCount: 4
Back
SplineSet
682.62890625 476.931640625 m 0
 689.381835938 397.946289062 681.903320312 113 677 0 c 1
 550 0 l 1
 574.154296875 113.708984375 581.047851562 319.502929688 570.803710938 417.126953125 c 0
 562.877929688 492.657226562 509.4296875 529.543945312 427 513 c 0
 345.936523438 496.73046875 281 417 281 417 c 1
 256 454 l 1
 294.055664062 514.724609375 415.8984375 606.36328125 520 611 c 0
 605.555664062 614.810546875 673.96484375 578.276367188 682.62890625 476.931640625 c 0
57 62 m 1
 133 63 165 72 169 130 c 1
 284 143 l 1
 274.751953125 47.67578125 341.915039062 46.7607421875 368 48 c 1
 378 0 l 1
 65 0 l 1
 57 62 l 1
454 58 m 1
 530 54 565 92 569 140 c 1
 682 139 l 1
 679 49 753 49 772 50 c 1
 782 0 l 1
 464 0 l 1
 454 58 l 1
54 596 m 1
 158 592 288 608 288 608 c 1
 288 608 271 496 265 470 c 1
 265 437 288 478 288 478 c 1
 282 338 293 181 275 0 c 1
 160 0 l 1
 175 200 181 397 174 459 c 0
 169 504 143 526 61 528 c 1
 54 596 l 1
EndSplineSet
Fore
SplineSet
689.62890625 476.931640625 m 0
 692.745117188 455.3984375 693.9453125 418.271484375 693.9453125 373.396484375 c 0
 693.9453125 254.765625 685.557617188 81.986328125 682 0 c 1
 559 0 l 1
 576.78515625 79.017578125 586.07421875 202.733398438 586.07421875 303.467773438 c 0
 586.07421875 347.692382812 584.090820312 387.48828125 579.803710938 417.126953125 c 0
 570.727539062 479.869140625 529.549804688 513.185546875 470.3359375 513.185546875 c 0
 369.083984375 513.185546875 286 417 286 417 c 1
 261 454 l 1
 310.334960938 522.000976562 438.137695312 611.673828125 550.265625 611.673828125 c 0
 629.708007812 611.673828125 675.985351562 571.221679688 689.62890625 476.931640625 c 0
52 62 m 1
 63.8515625 60.5966796875 74.8759765625 59.8740234375 85.05859375 59.8740234375 c 0
 140.174804688 59.8740234375 170.624023438 81.0439453125 174 130 c 1
 289 143 l 1
 288.791992188 139.228515625 288.69140625 135.60546875 288.69140625 132.124023438 c 0
 288.69140625 55.9560546875 336.818359375 47.7841796875 364.6640625 47.7841796875 c 0
 367.716796875 47.7841796875 370.525390625 47.8828125 373 48 c 1
 383 0 l 1
 60 0 l 1
 52 62 l 1
463 62 m 1
 466.6875 61.8056640625 485.241210938 58.611328125 498.7734375 58.7109375 c 0
 538 59 573.194335938 69.3291015625 579 140 c 1
 688 139 l 1
 685.350585938 59.6962890625 743.505859375 49.818359375 770.178710938 49.818359375 c 0
 772.875976562 49.818359375 775.188476562 49.904296875 777 50 c 1
 787 0 l 1
 473 0 l 1
 463 62 l 1
49 595 m 1
 64.4892578125 593.95703125 80.77734375 593.513671875 97.2822265625 593.513671875 c 0
 191.596679688 593.513671875 293 608 293 608 c 1
 293 608 276 496 270 470 c 1
 270 460.530273438 271.893554688 457.154296875 274.594726562 457.154296875 c 0
 281.305664062 457.154296875 293 478 293 478 c 1
 291.252929688 437.234375 290.947265625 395.02734375 290.947265625 351.206054688 c 0
 290.947265625 327.614257812 291.036132812 303.5546875 291.036132812 279 c 0
 291.036132812 192.529296875 289.936523438 99.921875 280 0 c 1
 165 0 l 1
 175.778320312 143.716796875 181.91015625 285.884765625 181.91015625 377.525390625 c 0
 181.91015625 413.413085938 180.969726562 441.552734375 179 459 c 0
 174 504 138 532 56 534 c 1
 49 595 l 1
EndSplineSet
Layer: 2
SplineSet
682.62890625 476.931640625 m 0
 688.779296875 397.897460938 681.903320312 113 677 0 c 1
 537 0 l 1
 561.154296875 113.708984375 568.047851562 319.502929688 557.803710938 417.126953125 c 0
 549.877929688 492.657226562 489.4296875 524.543945312 427 513 c 0
 345.698242188 497.966796875 281 417 281 417 c 1
 256 454 l 1
 284.055664062 514.724609375 410.8984375 608.36328125 515 613 c 0
 600.555664062 616.810546875 673.96484375 588.276367188 682.62890625 476.931640625 c 0
46 62 m 1
 122 63 154 79 158 137 c 1
 284 150 l 1
 274.751953125 54.67578125 341.915039062 53.7607421875 368 55 c 1
 378 0 l 1
 54 0 l 1
 46 62 l 1
454 65 m 1
 530 61 552 99 556 147 c 1
 682 146 l 1
 679 56 753 56 772 57 c 1
 782 0 l 1
 464 0 l 1
 454 65 l 1
43 596 m 1
 147 592 288 608 288 608 c 1
 288 608 271 496 265 470 c 1
 265 437 288 478 288 478 c 1
 282 338 293 181 275 0 c 1
 149 0 l 1
 164 200 170 397 163 459 c 0
 158 504 132 526 50 528 c 1
 43 596 l 1
EndSplineSet
Layer: 3
EndChar

StartChar: d
Encoding: 100 100 3
GlifName: uni0064
Width: 715
VWidth: 79
Flags: HW
LayerCount: 4
Back
SplineSet
463 136 m 5
 472.962890625 270.504882812 474.654296875 529.09375 469.217773438 718.8828125 c 4
 464.115234375 762.853515625 434.05078125 766 356 766 c 5
 349 829 l 5
 432 827 607 850 607 850 c 5
 582 650 578 208 582 145 c 4
 463 136 l 5
172.008789062 270 m 0
 170.942382812 167.05078125 212.369140625 75.9541015625 291.008789062 68 c 0
 372.40625 59.7666015625 448.291992188 126.734375 469.008789062 181 c 1
 500.008789062 140 l 1
 468.107421875 66 381.895507812 -12.91015625 269.008789062 -13 c 0
 123.999023438 -13.115234375 39.162109375 69.8994140625 38.0087890625 231 c 0
 36.9912109375 373.197265625 120.116210938 550.759765625 323.008789062 596 c 0
 401.350585938 613.46875 483.008789062 604 523.008789062 589 c 1
 483.008789062 501 l 1
 483.008789062 501 411.584960938 557.939453125 321.008789062 539 c 0
 233.211914062 520.641601562 173.567382812 420.450195312 172.008789062 270 c 0
539.008789062 -15 m 0
 485.715820312 -3.58984375 473.340820312 66.84765625 473.008789062 99 c 0
 472.560546875 108.749023438 464.137695312 129.8046875 463.74609375 142 c 0
 580.008789062 162 l 0
 585.463867188 80.44140625 613.682617188 44.87109375 692.008789062 57 c 1
 705.008789062 13 l 1
 652.836914062 -12.54296875 597.147460938 -27.447265625 539.008789062 -15 c 0
EndSplineSet
Fore
SplineSet
172.008789062 270 m 0
 170.942382812 167.05078125 212.369140625 75.9541015625 291.008789062 68 c 0
 372.40625 59.7666015625 448.291992188 126.734375 469.008789062 181 c 1
 500.008789062 140 l 1
 468.107421875 66 381.895507812 -12.91015625 269.008789062 -13 c 0
 123.999023438 -13.115234375 39.162109375 69.8994140625 38.0087890625 231 c 0
 36.9912109375 373.197265625 120.116210938 550.759765625 323.008789062 596 c 0
 401.350585938 613.46875 483.008789062 604 523.008789062 589 c 1
 483.008789062 501 l 1
 483.008789062 501 411.584960938 557.939453125 321.008789062 539 c 0
 233.211914062 520.641601562 173.567382812 420.450195312 172.008789062 270 c 0
539.008789062 -15 m 4
 485.715820312 -3.58984375 473.340820312 66.84765625 473.008789062 99 c 4
 472.560546875 108.749023438 464.137695312 129.8046875 463.74609375 142 c 4
 478.031659658 246.376045024 472.32421875 583.41796875 465.857421875 707.331054688 c 4
 463.403583478 754.350111267 421.419921875 767 349.008789062 766 c 5
 344.008789062 830 l 5
 427.008789062 828 598.008789062 850 598.008789062 850 c 5
 566.431711762 681.574604722 576.000366732 218.880215748 580.008789062 162 c 4
 585.754919944 80.4613952062 613.682617188 44.87109375 692.008789062 57 c 5
 705.008789062 13 l 5
 652.836914062 -12.54296875 597.147460938 -27.447265625 539.008789062 -15 c 4
EndSplineSet
Layer: 2
SplineSet
349.008789062 853 m 1
 432.008789062 851 607.008789062 873 607.008789062 873 c 1
 607.008789062 873 598.008789062 834 591.008789062 777 c 1
 591.008789062 773 586.008789062 748 586.008789062 744 c 1
 554.008789062 741 l 0
 459.008789062 718 l 0
 464.008789062 770 441.008789062 782 353.008789062 782 c 1
 349.008789062 853 l 1
519.008789062 -15 m 0
 466.807617188 0.6650390625 461.340820312 66.84765625 461.008789062 99 c 1
 460.560546875 108.749023438 452.137695312 129.8046875 451.74609375 142 c 1
 463.130859375 225.181640625 463.19140625 415.891601562 456.193359375 551 c 1
 456.129882812 560.46484375 466.078125 569.809570312 466.041992188 579 c 1
 465.98828125 593.064453125 455.971679688 626.76953125 456.008789062 640 c 0
 456.251953125 727.08203125 463.900390625 777.067382812 471.008789062 838 c 1
 597.008789062 848 l 1
 572.008789062 648 578.78125 230.20703125 583.008789062 167 c 0
 588.463867188 85.44140625 593.682617188 49.87109375 672.008789062 62 c 1
 685.008789062 13 l 1
 632.836914062 -12.54296875 577.147460938 -32.447265625 519.008789062 -15 c 0
172.008789062 290 m 0
 170.962890625 187.05078125 212.369140625 75.9541015625 291.008789062 68 c 0
 372.40625 59.7666015625 436.291992188 126.734375 457.008789062 181 c 1
 488.008789062 140 l 1
 456.107421875 66 381.895507812 -12.916015625 259.008789062 -13 c 0
 103.999023438 -13.10546875 31.162109375 79.8994140625 30.0087890625 241 c 0
 28.9912109375 383.197265625 120.116210938 552.759765625 323.008789062 598 c 0
 401.350585938 615.46875 471.008789062 606 511.008789062 591 c 1
 471.008789062 498 l 1
 471.008789062 498 409.006835938 552.794921875 321.008789062 538 c 0
 242.9921875 524.8828125 173.567382812 443.450195312 172.008789062 290 c 0
EndSplineSet
Layer: 3
EndChar

StartChar: h
Encoding: 104 104 4
GlifName: uni0068
Width: 793
VWidth: 79
Flags: HW
LayerCount: 4
Back
SplineSet
653.62890625 476.931640625 m 0
 662.693359375 398.177734375 652.903320312 113 648 0 c 1
 521 0 l 1
 545.154296875 113.708984375 552.047851562 319.502929688 541.803710938 417.126953125 c 0
 533.877929688 492.657226562 480.4296875 529.543945312 398 513 c 0
 316.936523438 496.73046875 252 417 252 417 c 1
 227 454 l 1
 265.055664062 514.724609375 388.8984375 606.36328125 493 611 c 0
 578.555664062 614.810546875 641.96484375 578.276367188 653.62890625 476.931640625 c 0
30 852 m 1
 113 850 291 873 291 873 c 1
 291 873 282 841 275 784 c 5
 275 780 270 755 270 751 c 5
 239 748 l 4
 151 723 l 4
 152 785 125 789 37 789 c 5
 30 852 l 1
314 1 m 1
 117 0 l 1
 117 0 136 72 144 136 c 1
 156 298 156 663 146 848 c 1
 291 873 l 1
 266 673 262 208 266 145 c 0
 269 101 248 49 330 49 c 1
 314 1 l 1
32 61 m 1
 108 57 138 89 145 137 c 1
 266 146 l 1
 264 51 340 50 358 51 c 1
 368 0 l 1
 42 0 l 1
 32 61 l 1
430 61 m 1
 506 57 536 89 540 137 c 1
 652 154 l 1
 649 64 733 60 752 61 c 1
 762 0 l 1
 440 0 l 1
 430 61 l 1
EndSplineSet
Fore
SplineSet
42 61 m 1
 118 57 151 89 158 137 c 1
 276 146 l 1
 274 51 350 50 368 51 c 1
 378 0 l 1
 52 0 l 1
 42 61 l 1
437 58 m 1
 440.687195023 57.805937104 442.278320312 57.7109375 445.7734375 57.7109375 c 0
 514.323242188 57.7109375 546.194335938 94.3291015625 550 140 c 1
 664 139 l 1
 661 49 734 49 753 50 c 1
 763 0 l 1
 445 0 l 1
 437 58 l 1
665.62890625 476.931640625 m 0
 676.981445312 398.475585938 662.903320312 113 658 0 c 1
 531 0 l 1
 547.78515625 79.017578125 558.07421875 202.733398438 558.07421875 303.467773438 c 0
 558.07421875 347.692382812 556.090820312 387.48828125 551.803710938 417.126953125 c 0
 540.877929688 492.657226562 487.4296875 525.543945312 408 509 c 0
 327.056640625 492.140625 262 417 262 417 c 1
 237 448 l 1
 285.055664062 518.724609375 407.013671875 604.252929688 501 611 c 0
 590.513671875 617.42578125 650.96484375 578.276367188 665.62890625 476.931640625 c 0
324 1 m 1
 130 0 l 1
 130 0 149 72 157 136 c 0
 166.963310863 270.50469665 168.65432478 529.093847489 163.21775642 718.883007723 c 0
 158.115035989 762.853348469 128.050736014 766.000000004 50 766 c 1
 43 829 l 1
 126 827 300 850 300 850 c 5
 275 637 272 208 276 145 c 0
 279 101 258 49 340 49 c 1
 324 1 l 1
EndSplineSet
Layer: 2
SplineSet
653.62890625 476.931640625 m 0
 659.779296875 397.897460938 652.903320312 113 648 0 c 1
 508 0 l 1
 532.154296875 113.708984375 540.323242188 319.645507812 528.803710938 417.126953125 c 0
 519.877929688 492.657226562 461.4296875 524.543945312 398 513 c 4
 316.65625 498.1953125 252 421 252 421 c 5
 227 454 l 1
 255.055664062 514.724609375 383.885742188 608.666992188 488 613 c 0
 579.555664062 616.810546875 644.96484375 588.276367188 653.62890625 476.931640625 c 0
20 852 m 1
 103 850 291 873 291 873 c 1
 291 873 282 834 275 777 c 1
 275 773 270 748 270 744 c 1
 239 741 l 0
 141 716 l 0
 142 778 115 782 27 782 c 1
 20 852 l 1
314 1 m 1
 107 0 l 1
 107 0 126 79 134 143 c 1
 146 305 146 663 136 848 c 1
 291 873 l 1
 266 673 262 215 266 152 c 0
 269 108 248 56 330 56 c 1
 314 1 l 1
22 68 m 1
 98 64 128 96 135 144 c 1
 266 153 l 1
 264 58 340 57 358 58 c 1
 368 0 l 1
 32 0 l 1
 22 68 l 1
430 68 m 1
 506 64 523 96 527 144 c 1
 652 161 l 1
 649 71 733 67 752 68 c 1
 762 0 l 1
 440 0 l 1
 430 68 l 1
EndSplineSet
Layer: 3
EndChar

StartChar: e
Encoding: 101 101 5
GlifName: uni0065
Width: 596
VWidth: 153
Flags: HW
LayerCount: 4
Back
SplineSet
118.8125 346 m 5
 365.8125 368 l 1
 428.8125 368 l 1
 419.8125 497 359.799804688 563.91015625 281.8125 555 c 0
 237.961914062 549.990234375 150.098632812 510.348632812 168.8125 319 c 0
 182.702148438 176.98046875 230.2265625 78.201171875 343.8125 63 c 0
 448.008789062 49.0556640625 536.8125 113 538.8125 113 c 1
 567.8125 77 l 0
 548.8125 60 466.802734375 -14.271484375 339.8125 -16 c 0
 192.811523438 -18.0009765625 49.2138671875 53.0205078125 38.8125 257 c 0
 26.1318359375 505.689453125 183.887695312 605.030273438 300.8125 609 c 0
 485.837890625 615.282226562 572.8125 477 552.8125 298 c 1
 142.8125 298 l 1
 118.8125 346 l 5
EndSplineSet
Fore
SplineSet
118.8125 344 m 1
 375.8125 367 l 1
 435.8125 368 l 1
 425.8125 507 350.73828125 564.84375 291.8125 559 c 0
 198.931640625 549.7890625 157.534179688 461.860351562 160.8125 329 c 0
 163.29296875 228.477539062 187.2265625 83.201171875 324.8125 58 c 0
 428.217773438 39.0595703125 517.8125 107 519.8125 107 c 1
 543.8125 73 l 0
 524.8125 56 449.798259684 -13.9992631886 322.8125 -16 c 0
 195.811523438 -18.0009765625 49.6484375 36.04296875 38.8125 240 c 0
 26.1318359375 478.689453125 169.288010543 598.580474479 295.8125 609 c 0
 463.96484375 622.84765625 568.8125 527 550.8125 298 c 1
 148.8125 296 l 1
 118.8125 344 l 1
EndSplineSet
Layer: 2
SplineSet
118.8125 346 m 5
 365.8125 368 l 1
 428.8125 368 l 1
 419.8125 497 359.799804688 563.91015625 281.8125 555 c 0
 237.961914062 549.990234375 150.098632812 510.348632812 168.8125 319 c 0
 182.702148438 176.98046875 230.2265625 78.201171875 343.8125 63 c 0
 448.008789062 49.0556640625 536.8125 113 538.8125 113 c 1
 567.8125 77 l 0
 548.8125 60 466.802734375 -14.271484375 339.8125 -16 c 0
 192.811523438 -18.0009765625 49.2138671875 53.0205078125 38.8125 257 c 0
 26.1318359375 505.689453125 183.887695312 605.030273438 300.8125 609 c 0
 485.837890625 615.282226562 572.8125 477 552.8125 298 c 1
 142.8125 298 l 1
 118.8125 346 l 5
EndSplineSet
Layer: 3
EndChar

StartChar: i
Encoding: 105 105 6
GlifName: uni0069
Width: 409
VWidth: 79
Flags: HW
LayerCount: 4
Back
SplineSet
116.1953125 788.1328125 m 0
 116.1953125 835.697265625 154.700195312 874.202148438 202.264648438 874.202148438 c 0
 249.830078125 874.202148438 288.334960938 835.697265625 288.334960938 788.1328125 c 0
 288.334960938 740.567382812 249.830078125 702.0625 202.264648438 702.0625 c 0
 154.700195312 702.0625 116.1953125 740.567382812 116.1953125 788.1328125 c 0
46 68 m 1
 112 64 144 86 148 144 c 1
 271 149 l 1
 269 54 331 60 359 61 c 1
 369 0 l 1
 53 0 l 1
 46 68 l 1
45 592 m 1
 128 590 285 603 285 603 c 1
 275.327148438 547.604492188 273.629882812 87.107421875 265 0 c 1
 139 0 l 1
 154 200 155 387 148 449 c 0
 143 494 123 524 51 524 c 1
 45 592 l 1
EndSplineSet
Fore
SplineSet
122.389648438 781.198242188 m 0
 122.389648438 822.447265625 155.78125 850.634765625 197.029296875 850.634765625 c 0
 246.950195312 850.634765625 271.670898438 812.0390625 271.670898438 770.791992188 c 0
 271.670898438 729.541992188 238.279296875 701.353515625 197.029296875 701.353515625 c 0
 155.78125 701.353515625 122.389648438 739.948242188 122.389648438 781.198242188 c 0
46 61 m 1
 112 57 160 79 164 137 c 1
 271 142 l 1
 269 47 331 53 359 54 c 1
 369 0 l 1
 53 0 l 1
 46 61 l 1
45 592 m 1
 128 590 285 603 285 603 c 1
 275.327148438 547.604492188 273.629882812 87.107421875 265 0 c 1
 155 0 l 1
 170 200 171 394 164 456 c 0
 159 501 123 531 51 531 c 1
 45 592 l 1
EndSplineSet
Layer: 2
SplineSet
116.1953125 788.1328125 m 0
 116.1953125 835.697265625 154.700195312 874.202148438 202.264648438 874.202148438 c 0
 249.830078125 874.202148438 288.334960938 835.697265625 288.334960938 788.1328125 c 0
 288.334960938 740.567382812 249.830078125 702.0625 202.264648438 702.0625 c 0
 154.700195312 702.0625 116.1953125 740.567382812 116.1953125 788.1328125 c 0
46 68 m 1
 112 64 144 86 148 144 c 1
 271 149 l 1
 269 54 331 60 359 61 c 1
 369 0 l 1
 53 0 l 1
 46 68 l 1
45 592 m 1
 128 590 285 603 285 603 c 1
 275.327148438 547.604492188 273.629882812 87.107421875 265 0 c 1
 139 0 l 1
 154 200 155 387 148 449 c 0
 143 494 123 524 51 524 c 1
 45 592 l 1
EndSplineSet
Layer: 3
EndChar

StartChar: s
Encoding: 115 115 7
GlifName: uni0073
Width: 531
VWidth: 153
Flags: HW
LayerCount: 4
Back
SplineSet
243 47 m 0
 301.53125 46.4580078125 348.39453125 87.744140625 356 131.4140625 c 0
 379.359375 265.549804688 86.7275390625 249.123046875 64 412 c 0
 49.3701171875 516.848632812 145.05078125 608.756835938 302 606 c 0
 396.024414062 604.348632812 458 580 458 580 c 1
 462.323242188 542.447265625 460.184570312 471.194335938 455 437 c 1
 375 445 l 1
 373.559570312 482.333007812 358.795898438 542.666992188 338 591 c 1
 393 462 l 1
 379.317382812 478.264648438 357.96484375 550.783203125 274 551.381835938 c 0
 217.659179688 551.783203125 184.045898438 511.095703125 194 466 c 0
 219.3203125 351.291992188 459.510742188 368.948242188 476 184 c 0
 486.04296875 71.3583984375 379.010742188 -13.544921875 235 -14 c 0
 122.419921875 -14.35546875 39 18 39 18 c 1
 35.111328125 53.1884765625 36.8671875 115.701171875 46 176 c 1
 129 167 l 1
 131.750976562 119.7890625 140.740234375 75.5732421875 165 41 c 1
 124.46875 52.052734375 112.418945312 95.958984375 105 139 c 1
 137.305664062 104.682617188 156.556640625 47.80078125 243 47 c 0
EndSplineSet
Fore
SplineSet
253 43 m 0
 312.53125 42.4580078125 355.39453125 82.744140625 363 126.4140625 c 0
 386.359375 260.549804688 98.4755859375 249.376953125 74 412 c 0
 58.3701171875 515.848632812 145.05078125 608.756835938 302 606 c 0
 396.024414062 604.348632812 458 580 458 580 c 1
 462.323242188 542.447265625 460.184570312 471.194335938 455 437 c 1
 375 445 l 1
 373.559570312 482.333007812 358.795898438 542.666992188 338 591 c 1
 393 462 l 1
 379.317382812 478.264648438 357.96484375 554.783203125 274 555.381835938 c 0
 217.659179688 555.783203125 174.045898438 512.095703125 184 466 c 0
 208.794921875 351.177734375 459.510742188 348.948242188 476 184 c 0
 487.249023438 71.47265625 389.010742188 -17.544921875 245 -18 c 0
 132.419921875 -18.35546875 49 14 49 14 c 1
 45.111328125 49.1884765625 46.8671875 111.701171875 56 172 c 1
 139 163 l 1
 141.750976562 115.7890625 150.740234375 71.5732421875 175 37 c 1
 134.46875 48.052734375 122.418945312 91.958984375 115 135 c 1
 147.305664062 100.682617188 166.556640625 43.787109375 253 43 c 0
EndSplineSet
Layer: 2
SplineSet
243 47 m 0
 301.53125 46.4580078125 348.39453125 87.744140625 356 131.4140625 c 0
 379.359375 265.549804688 86.7275390625 249.123046875 64 412 c 0
 49.3701171875 516.848632812 145.05078125 608.756835938 302 606 c 0
 396.024414062 604.348632812 458 580 458 580 c 1
 462.323242188 542.447265625 460.184570312 471.194335938 455 437 c 1
 375 445 l 1
 373.559570312 482.333007812 358.795898438 542.666992188 338 591 c 1
 393 462 l 1
 379.317382812 478.264648438 357.96484375 550.783203125 274 551.381835938 c 0
 217.659179688 551.783203125 184.045898438 511.095703125 194 466 c 0
 219.3203125 351.291992188 459.510742188 368.948242188 476 184 c 0
 486.04296875 71.3583984375 379.010742188 -13.544921875 235 -14 c 0
 122.419921875 -14.35546875 39 18 39 18 c 1
 35.111328125 53.1884765625 36.8671875 115.701171875 46 176 c 1
 129 167 l 1
 131.750976562 119.7890625 140.740234375 75.5732421875 165 41 c 1
 124.46875 52.052734375 112.418945312 95.958984375 105 139 c 1
 137.305664062 104.682617188 156.556640625 47.80078125 243 47 c 0
EndSplineSet
Layer: 3
EndChar

StartChar: o
Encoding: 111 111 8
GlifName: o
Width: 652
VWidth: 153
Flags: HWO
LayerCount: 4
Back
SplineSet
371.670898438 611.631835938 m 4
 189.022460938 616.409179688 47.15234375 465.428710938 39.0185546875 255.5859375 c 0
 32.9921875 100.102539062 120.208007812 -9.572265625 308.635742188 -14.4541015625 c 0
 531.596679688 -20.23046875 620.932617188 146.333007812 626.072265625 322.662109375 c 0
 632.393554688 539.545898438 519.641601562 607.76171875 371.670898438 611.631835938 c 4
485.171875 297.67578125 m 0
 481.427734375 167.583007812 441.250976562 59.431640625 344.459960938 48.4140625 c 0
 230.208984375 35.4091796875 177.90625 186.602539062 182.434570312 318.36328125 c 0
 188.868164062 505.547851562 277.1015625 548.077148438 322.977539062 553.431640625 c 0
 408.30859375 563.390625 489.677734375 454.274414062 485.171875 297.67578125 c 0
EndSplineSet
Fore
SplineSet
356.670898438 611.631835938 m 0
 173.961914062 612.6640625 38.15234375 465.428710938 40.0185546875 245.5859375 c 0
 41.33984375 89.9912109375 115.208007812 -11.572265625 293.635742188 -14.4541015625 c 0
 516.642578125 -18.0556640625 602.684570312 147.340820312 608.072265625 323.662109375 c 0
 614.393554688 530.545898438 510.641601562 610.76171875 356.670898438 611.631835938 c 0
490.171875 297.67578125 m 0
 486.427734375 167.583007812 436.250976562 59.431640625 339.459960938 48.4140625 c 0
 225.208984375 35.4091796875 162.90625 156.602539062 167.434570312 318.36328125 c 0
 172.67578125 505.584960938 261.973632812 549.31640625 307.977539062 553.431640625 c 0
 419.30859375 563.390625 494.677734375 454.274414062 490.171875 297.67578125 c 0
EndSplineSet
Layer: 2
SplineSet
371.670898438 611.631835938 m 4
 189.022460938 616.409179688 47.15234375 465.428710938 39.0185546875 255.5859375 c 0
 32.9921875 100.102539062 120.208007812 -9.572265625 308.635742188 -14.4541015625 c 0
 531.596679688 -20.23046875 620.932617188 146.333007812 626.072265625 322.662109375 c 0
 632.393554688 539.545898438 519.641601562 607.76171875 371.670898438 611.631835938 c 4
485.171875 297.67578125 m 0
 481.427734375 167.583007812 441.250976562 59.431640625 344.459960938 48.4140625 c 0
 230.208984375 35.4091796875 177.90625 186.602539062 182.434570312 318.36328125 c 0
 188.868164062 505.547851562 277.1015625 548.077148438 322.977539062 553.431640625 c 0
 408.30859375 563.390625 489.677734375 454.274414062 485.171875 297.67578125 c 0
EndSplineSet
Layer: 3
EndChar

StartChar: b
Encoding: 98 98 9
GlifName: b
Width: 688
VWidth: 79
Flags: HW
LayerCount: 4
Back
SplineSet
0 819 m 5
 83 817 254 839 254 839 c 5
 254 839 245 800 238 743 c 5
 238 739 233 714 233 710 c 5
 216 707 l 4
 122 677 l 4
 127 729 88 758 0 758 c 5
 0 819 l 5
279 1 m 5
 116 24 l 5
 118.794921875 180.715820312 125.564453125 631.268554688 118 815 c 5
 253 834 l 5
 217.078125 546.623046875 219.814453125 183.802734375 227 45 c 5
 279 1 l 5
519 349 m 4
 519.874023438 485.951171875 448.341808951 535.290461064 386 534 c 4
 328.950355759 532.819085525 258.716796875 488.265625 223 404 c 5
 189 445 l 5
 236.901367188 558 342.11328125 612.911132812 427 613 c 4
 572.009765625 613.15234375 649 515 643 344 c 4
 636.958007812 171.802734375 553.734375 -10.203125 324 -12 c 4
 225.939453125 -12.7666015625 158 7 115 24 c 5
 185 152 l 5
 185 152 249.77734375 30.8427734375 367 52 c 4
 448.831054688 66.76953125 517.829196849 165.546265528 519 349 c 4
EndSplineSet
Fore
SplineSet
112.74609375 22 m 5
 126.15417963 127.267049717 132.487815858 572.076140278 114.857421875 707.331054688 c 4
 108.771597064 754.019615062 70.419921875 767 -1.9912109375 766 c 1
 -6.9912109375 830 l 1
 76.0087890625 828 247.008789062 850 247.008789062 850 c 1
 215.431640625 681.57421875 225 218.879882812 229.008789062 162 c 0
 234.754882812 80.4609375 222.682617188 34.87109375 301.008789062 47 c 1
 314.008789062 3 l 1
 112.74609375 22 l 5
519 349 m 0
 519.874023438 485.951171875 448.341808951 535.290461064 386 534 c 0
 328.950355759 532.819085525 258.716796875 488.265625 223 404 c 1
 189 445 l 1
 236.901367188 558 342.11328125 612.911132812 427 613 c 0
 572.009765625 613.15234375 649 515 643 344 c 0
 636.958007812 171.802734375 553.734375 -10.203125 324 -12 c 0
 225.939453125 -12.7666015625 156 5 113 22 c 1
 185 152 l 1
 185 152 249.77734375 30.8427734375 367 52 c 0
 448.831054688 66.76953125 517.829196849 165.546265528 519 349 c 0
EndSplineSet
Layer: 2
SplineSet
2 851 m 1
 85 849 260 871 260 871 c 1
 260 871 251 832 244 775 c 1
 244 771 239 746 239 742 c 1
 208 739 l 0
 114 702 l 0
 119 754 90 781 2 781 c 1
 2 851 l 1
285 1 m 1
 108 24 l 1
 100.794921875 180.715820312 103.564453125 663.268554688 125 847 c 1
 259 866 l 1
 223.078125 578.623046875 225.814453125 193.802734375 233 55 c 1
 285 1 l 1
504 338 m 0
 504.874023438 450.951171875 458.306640625 542.989257812 369 540 c 0
 321.951171875 538.42578125 259.716796875 495.265625 229 411 c 1
 190 474 l 1
 241.901367188 558 334.11328125 612.916992188 419 613 c 0
 575.009765625 613.15234375 656 508 650 337 c 0
 643.958007812 164.802734375 553.734375 -10.203125 324 -12 c 0
 225.939453125 -12.7666015625 150 7 107 24 c 1
 177 162 l 1
 177 162 229.8828125 52.3623046875 349 52 c 0
 424.831054688 51.76953125 502.580078125 154.548828125 504 338 c 0
EndSplineSet
Layer: 3
EndChar

StartChar: r
Encoding: 114 114 10
GlifName: r
Width: 591
VWidth: 79
Flags: HW
LayerCount: 4
Back
SplineSet
254 379 m 17
 271.872070312 453.254882812 352.202148438 589.650390625 490 594 c 0
 539.57421875 595.564453125 560 583 560 583 c 17
 564.8671875 518.4921875 556.116210938 425.768554688 547 379 c 9
 467 383 l 17
 459.6328125 436.482421875 418.154296875 509 418.154296875 509 c 1
 464 476 l 1
 380.666015625 477.666992188 312.666015625 420.666992188 250 320 c 9
 254 379 l 17
46 61 m 1
 112 57 157 79 161 137 c 1
 271 142 l 1
 269 47 331 53 359 54 c 1
 369 0 l 1
 53 0 l 1
 46 61 l 1
45 582 m 1
 128 580 285 593 285 593 c 1
 275.327148438 537.604492188 273.629882812 87.107421875 265 0 c 1
 152 0 l 1
 167 200 168 384 161 446 c 0
 156 491 123 521 51 521 c 1
 45 582 l 1
EndSplineSet
Fore
SplineSet
474 408 m 1049
573.62890625 596.931640625 m 1,0,1
 580.06640625 550.486328125 568 443 560.676757812 402 c 1,9,10
 474 408 l 1,0,0
 468.810546875 474.30078125 446.081054688 516.78515625 411.336914062 554 c 1,0,0
 508.3359375 487.185546875 l 1,11,12
 378.362304688 532.341796875 230.743164062 428.206054688 242 417 c 1,15,-1
 237 464 l 1,16,17
 298.587890625 535.41015625 413.267578125 606.356445312 498 608.061523438 c 0,0,0
 547.016635497 609.04788959 573.62890625 596.931640625 573.62890625 596.931640625 c 1,0,1
48 63 m 1,22,23
 59.8515625 61.5966796875 70.8759765625 60.8740234375 81.05859375 60.8740234375 c 0,24,25
 136.174804688 60.8740234375 166.624023438 82.0439453125 170 131 c 1,26,-1
 284 150 l 1,27,28
 283.791992188 146.228515625 283.69140625 142.60546875 283.69140625 139.124023438 c 0,29,30
 283.69140625 62.9560546875 352.818359375 48.7841796875 400.6640625 48.7841796875 c 0,31,32
 403.716796875 48.7841796875 406.525390625 48.8828125 409 49 c 1,33,-1
 419 1 l 1,34,-1
 56 1 l 1,35,-1
 48 63 l 1,22,23
45 595 m 1,50,51
 60.4893617021 593.957446809 76.777274785 593.513807153 93.282288125 593.513807153 c 0,52,53
 187.596650068 593.513807153 289 608 289 608 c 1,54,55
 289 608 272 486 266 460 c 1,56,57
 289 468 l 1,60,61
 286.176757812 402.124023438 282.036132812 348.6171875 282.036132812 279 c 0,64,65
 282.036132812 192.529296875 282.936523438 99.921875 296 0 c 1,66,-1
 161 0 l 1,67,68
 171.778782826 143.717104352 177.910279284 285.885113248 177.910279284 377.525093753 c 0,69,70
 177.910279284 413.413400042 176.969901348 441.552302349 175 459 c 0,71,72
 170 504 134 532 52 534 c 1,73,-1
 45 595 l 1,50,51
EndSplineSet
Layer: 2
Layer: 3
SplineSet
474 408 m 1053
573.62890625 596.931640625 m 5,0,1
 580.06640625 550.486328125 568 443 560.676757812 402 c 5,9,10
 474 408 l 5,0,0
 468.810546875 474.30078125 446.081054688 516.78515625 411.336914062 554 c 5,0,0
 508.3359375 487.185546875 l 5,11,12
 378.362304688 532.341796875 230.743164062 428.206054688 242 417 c 5,15,-1
 237 464 l 5,16,17
 298.587890625 535.41015625 413.267578125 606.356445312 498 608.061523438 c 4,0,0
 547.016635497 609.04788959 573.62890625 596.931640625 573.62890625 596.931640625 c 5,0,1
48 63 m 5,22,23
 59.8515625 61.5966796875 70.8759765625 60.8740234375 81.05859375 60.8740234375 c 4,24,25
 136.174804688 60.8740234375 166.624023438 82.0439453125 170 131 c 5,26,-1
 284 150 l 5,27,28
 283.791992188 146.228515625 283.69140625 142.60546875 283.69140625 139.124023438 c 4,29,30
 283.69140625 62.9560546875 352.818359375 48.7841796875 400.6640625 48.7841796875 c 4,31,32
 403.716796875 48.7841796875 406.525390625 48.8828125 409 49 c 5,33,-1
 419 1 l 5,34,-1
 56 1 l 5,35,-1
 48 63 l 5,22,23
45 595 m 5,50,51
 60.4893617021 593.957446809 76.777274785 593.513807153 93.282288125 593.513807153 c 4,52,53
 187.596650068 593.513807153 289 608 289 608 c 5,54,55
 289 608 272 486 266 460 c 5,56,57
 289 468 l 5,60,61
 286.176757812 402.124023438 282.036132812 348.6171875 282.036132812 279 c 4,64,65
 282.036132812 192.529296875 282.936523438 99.921875 296 0 c 5,66,-1
 161 0 l 5,67,68
 171.778782826 143.717104352 177.910279284 285.885113248 177.910279284 377.525093753 c 4,69,70
 177.910279284 413.413400042 176.969901348 441.552302349 175 459 c 4,71,72
 170 504 134 532 52 534 c 5,73,-1
 45 595 l 5,50,51
EndSplineSet
EndChar

StartChar: t
Encoding: 116 116 12
GlifName: t
Width: 469
VWidth: 79
Flags: HW
LayerCount: 4
Back
Fore
SplineSet
132 577 m 1
 397 578 l 1
 404 515 l 1
 142 518 l 1
 132 577 l 1
25 578 m 1
 163.997070312 569.036132812 154.541015625 619.109375 178 720 c 1
 256 734 l 1
 247.344726562 594.717773438 228 319 241 142 c 0
 247.630859375 51.72265625 338 35 426 96 c 1
 448 60 l 1
 397.432617188 16.1953125 334.638671875 -12.3291015625 254 -13 c 0
 190.130859375 -13.53125 117.151266658 11.8572997848 121 110 c 0
 129 314 130 456 125 518 c 1
 125 518 103 524 31 524 c 1
 25 578 l 1
EndSplineSet
Layer: 2
Layer: 3
EndChar

StartChar: p
Encoding: 112 112 13
GlifName: p
Width: 755
VWidth: 79
Flags: HW
LayerCount: 4
Back
Fore
SplineSet
48 -156 m 5
 59.8515625 -157.403320312 70.8759765625 -158.125976562 81.05859375 -158.125976562 c 4
 136.174804688 -158.125976562 164.624023438 -136.956054688 168 -88 c 5
 287 -69 l 5
 286.791992188 -72.771484375 286.69140625 -76.39453125 286.69140625 -79.8759765625 c 4
 286.69140625 -156.043945312 345.818359375 -170.215820312 393.6640625 -170.215820312 c 4
 396.716796875 -170.215820312 399.525390625 -170.1171875 402 -170 c 5
 412 -218 l 5
 56 -218 l 5
 48 -156 l 5
45 595 m 1
 60.4893617021 593.957446809 76.777274785 593.513807153 93.282288125 593.513807153 c 0
 187.596650068 593.513807153 289 608 289 608 c 1
 289 608 272 506 266 480 c 1
 289 488 l 1
 286.176799711 422.124274522 282.036132812 348.6171875 282.036132812 279 c 0
 282.036132812 192.529296875 282.936523438 -117.078125 296 -217 c 1
 161 -217 l 1
 171.778320312 -73.283203125 177.910279284 285.885113248 177.910279284 377.525093753 c 0
 177.910279284 413.413400042 176.969901348 441.552302349 175 459 c 0
 170 504 135 536 52 534 c 1
 45 595 l 1
582.991210938 331 m 0
 584.057617188 433.94921875 552.630859375 524.045898438 463.991210938 533 c 0
 382.592661313 541.222628285 306.708007812 474.265625 285.991210938 420 c 1
 254.991210938 461 l 1
 286.892578125 535 383.104492576 613.909669803 495.991210938 614 c 0
 640.000976562 614.115234375 715.837890625 531.100585938 716.991210938 370 c 0
 718.008789062 227.802734375 634.883789062 50.240234375 431.991210938 5 c 0
 353.649414062 -12.46875 271.991210938 -3 231.991210938 12 c 1
 271.991210938 100 l 1
 271.991210938 100 343.415039062 43.060546875 433.991210938 62 c 0
 521.788085938 80.3583984375 581.432617188 180.549804688 582.991210938 331 c 0
EndSplineSet
Layer: 2
Layer: 3
EndChar

StartChar: v
Encoding: 118 118 15
GlifName: v
Width: 681
VWidth: 79
Flags: HW
LayerCount: 4
Back
SplineSet
662 538 m 1
 592.022460938 535.735351562 597.107421875 508.028320312 576.810546875 455.861328125 c 0
 508 279 416.959960938 88.9033203125 379.661132812 8.6162109375 c 9
 255.399414062 -24.650390625 l 1
 216.270507812 86.927734375 183.459960938 225.581054688 103.497070312 462.43359375 c 1
 84.3037109375 526.984375 68.650390625 532.875976562 12 532 c 1
 -2 596 l 1
 112 590.78125 206 592.904296875 320 596 c 1
 334 542 l 1
 258 536 205 525 220 460 c 1
 219.7265625 459.962890625 l 1
 247.463867188 361.939453125 288.78125 252.842773438 313.678710938 158 c 1
 316.244140625 135.912109375 333 45 330.991210938 51 c 5
 360.858398438 122.987304688 438.057617188 302.979492188 501.733398438 468.791992188 c 1
 519.560546875 526.806640625 457.559570312 535.975585938 390 533 c 1
 381 596 l 1
 477.666992188 590.463867188 554.333007812 592.002929688 651 596 c 1
 662 538 l 1
EndSplineSet
Fore
SplineSet
676 538 m 1
 606.022460938 535.735351562 599.863888353 507.310413037 577.810546875 455.861328125 c 0
 502 279 412.959960938 75.9033203125 375.661132812 -4.3837890625 c 1
 346.434717732 -7.65563267774 307.273052657 -15.1803859342 273.399414062 -25.650390625 c 1
 234.270507812 85.927734375 183.459960938 225.581054688 103.497070312 462.43359375 c 1
 84.3037109375 526.984375 52.650390625 538.875976562 6 538 c 1
 -2 596 l 1
 112 590.78125 206 592.904296875 320 596 c 1
 334 542 l 1
 258 536 210 525 225 460 c 1
 224.7265625 459.962890625 l 1
 252.463867188 361.939453125 283.78125 291.842773438 308.678710938 197 c 1
 319.244140625 161.912109375 338 63 335.991210938 69 c 1
 369.858398438 140.987304688 458.057617188 352.979492188 491.733398438 458.791992188 c 1
 509.560546875 517.806640625 471.559570312 535.975585938 404 533 c 1
 395 596 l 1
 491.666992188 590.463867188 568.333007812 592.002929688 665 596 c 1
 676 538 l 1
EndSplineSet
Layer: 2
SplineSet
682 538 m 1
 612.022460938 535.735351562 597.107421875 508.028320312 576.810546875 455.861328125 c 0
 508 279 416.959960938 68.9033203125 379.661132812 -11.3837890625 c 9
 252.399414062 -14.650390625 l 1
 213.270507812 96.927734375 183.459960938 225.581054688 103.497070312 462.43359375 c 1
 84.3037109375 526.984375 48.650390625 532.875976562 -8 532 c 1
 -22 596 l 1
 92 590.78125 206 592.904296875 320 596 c 1
 334 542 l 1
 258 536 222 515 237 450 c 1
 236.7265625 449.962890625 l 1
 264.463867188 351.939453125 295.78125 252.842773438 320.678710938 158 c 1
 323.244140625 135.912109375 333 65 330.991210938 71 c 1
 360.858398438 142.987304688 428.057617188 302.979492188 491.733398438 468.791992188 c 1
 509.560546875 526.806640625 457.559570312 535.975585938 390 533 c 1
 381 596 l 1
 477.666992188 590.463867188 574.333007812 592.002929688 671 596 c 1
 682 538 l 1
EndSplineSet
Layer: 3
EndChar

StartChar: m
Encoding: 109 109 16
GlifName: m
Width: 1144
VWidth: 79
Flags: HW
LayerCount: 4
Back
SplineSet
1041.62890625 476.931640625 m 0
 1047.77929688 397.897460938 1040.90332031 113 1036 0 c 1
 896 0 l 1
 920.154296875 113.708984375 927.047851562 319.502929688 916.803710938 417.126953125 c 0
 908.877929688 492.657226562 848.4296875 524.543945312 786 513 c 0
 704.698242188 497.966796875 650 437 650 437 c 1
 625 474 l 1
 663.055664062 524.724609375 769.8984375 608.36328125 874 613 c 0
 959.555664062 616.810546875 1032.96484375 588.276367188 1041.62890625 476.931640625 c 0
813 65 m 1
 889 61 911 99 915 147 c 1
 1041 146 l 1
 1038 56 1112 56 1131 57 c 1
 1141 0 l 1
 823 0 l 1
 813 65 l 1
651.62890625 476.931640625 m 0
 657.779296875 397.897460938 650.903320312 113 646 0 c 1
 506 0 l 1
 530.154296875 113.708984375 537.047851562 319.502929688 526.803710938 417.126953125 c 0
 518.877929688 492.657226562 462.4296875 524.543945312 400 513 c 0
 318.698242188 497.966796875 255 412 255 412 c 1
 230 449 l 1
 258.055664062 509.724609375 380.8984375 608.36328125 485 613 c 4
 570.555664062 616.810546875 642.96484375 588.276367188 651.62890625 476.931640625 c 0
30 62 m 1
 106 63 138 79 142 137 c 1
 268 150 l 1
 258.751953125 54.67578125 325.915039062 53.7607421875 352 55 c 1
 362 0 l 1
 38 0 l 1
 30 62 l 1
429 65 m 1
 505 61 521 99 525 147 c 1
 651 146 l 1
 648 56 722 56 741 57 c 1
 751 0 l 1
 439 0 l 1
 429 65 l 1
27 596 m 1
 131 592 272 608 272 608 c 1
 272 608 255 496 249 470 c 1
 249 437 272 478 272 478 c 1
 266 338 277 181 259 0 c 1
 133 0 l 1
 148 200 154 397 147 459 c 0
 142 504 116 526 34 528 c 1
 27 596 l 1
EndSplineSet
Fore
SplineSet
1026.62890625 476.931640625 m 0
 1037.98144531 398.475585938 1025.90332031 113 1021 0 c 1
 894 0 l 1
 918.154296875 113.708984375 925.047851562 319.502929688 914.803710938 417.126953125 c 0
 906.877929688 492.657226562 853.4296875 529.543945312 771 513 c 0
 689.936523438 496.73046875 625 417 625 417 c 1
 600 454 l 1
 638.055664062 514.724609375 759.975585938 604.8671875 864 611 c 0
 962.555664062 616.810546875 1011.96484375 578.276367188 1026.62890625 476.931640625 c 0
808 58 m 1
 884 54 909 92 913 140 c 1
 1026 139 l 1
 1023 49 1097 49 1116 50 c 1
 1126 0 l 1
 818 0 l 1
 808 58 l 1
640.62890625 476.931640625 m 0
 651.981445312 398.475585938 639.903320312 113 635 0 c 1
 508 0 l 1
 532.154296875 113.708984375 539.047851562 319.502929688 528.803710938 417.126953125 c 0
 520.877929688 492.657226562 467.4296875 529.543945312 385 513 c 0
 303.936523438 496.73046875 235 417 235 417 c 1
 210 454 l 1
 248.055664062 514.724609375 373.975585938 604.8671875 478 611 c 0
 576.555664062 616.810546875 625.96484375 578.276367188 640.62890625 476.931640625 c 0
41 62 m 1
 117 63 149 72 153 130 c 1
 268 143 l 1
 262.751953125 47.67578125 325.915039062 46.7607421875 352 48 c 1
 362 0 l 1
 49 0 l 1
 41 62 l 1
432 58 m 1
 508 54 523 92 527 140 c 1
 640 139 l 1
 637 49 701 49 720 50 c 1
 730 0 l 1
 442 0 l 1
 432 58 l 1
38 596 m 1
 142 592 272 608 272 608 c 1
 272 608 255 496 249 470 c 1
 249 437 272 478 272 478 c 1
 266 338 277 181 259 0 c 1
 144 0 l 1
 159 200 165 397 158 459 c 0
 153 504 127 526 45 528 c 1
 38 596 l 1
EndSplineSet
Layer: 2
SplineSet
1041.62890625 476.931640625 m 0
 1047.77929688 397.897460938 1040.90332031 113 1036 0 c 1
 896 0 l 1
 920.154296875 113.708984375 927.047851562 319.502929688 916.803710938 417.126953125 c 0
 908.877929688 492.657226562 848.4296875 524.543945312 786 513 c 0
 704.698242188 497.966796875 650 437 650 437 c 1
 625 474 l 1
 663.055664062 524.724609375 769.8984375 608.36328125 874 613 c 0
 959.555664062 616.810546875 1032.96484375 588.276367188 1041.62890625 476.931640625 c 0
813 65 m 1
 889 61 911 99 915 147 c 1
 1041 146 l 1
 1038 56 1112 56 1131 57 c 1
 1141 0 l 1
 823 0 l 1
 813 65 l 1
651.62890625 476.931640625 m 0
 657.779296875 397.897460938 650.903320312 113 646 0 c 1
 506 0 l 1
 530.154296875 113.708984375 537.047851562 319.502929688 526.803710938 417.126953125 c 0
 518.877929688 492.657226562 462.4296875 524.543945312 400 513 c 0
 318.698242188 497.966796875 255 412 255 412 c 1
 230 449 l 1
 258.055664062 509.724609375 380.8984375 608.36328125 485 613 c 4
 570.555664062 616.810546875 642.96484375 588.276367188 651.62890625 476.931640625 c 0
30 62 m 1
 106 63 138 79 142 137 c 1
 268 150 l 1
 258.751953125 54.67578125 325.915039062 53.7607421875 352 55 c 1
 362 0 l 1
 38 0 l 1
 30 62 l 1
429 65 m 1
 505 61 521 99 525 147 c 1
 651 146 l 1
 648 56 722 56 741 57 c 1
 751 0 l 1
 439 0 l 1
 429 65 l 1
27 596 m 1
 131 592 272 608 272 608 c 1
 272 608 255 496 249 470 c 1
 249 437 272 478 272 478 c 1
 266 338 277 181 259 0 c 1
 133 0 l 1
 148 200 154 397 147 459 c 0
 142 504 116 526 34 528 c 1
 27 596 l 1
EndSplineSet
Layer: 3
EndChar

StartChar: g
Encoding: 103 103 17
GlifName: g
Width: 727
VWidth: 153
Flags: HW
LayerCount: 4
Back
SplineSet
475 541 m 21
 504.642578125 543.012695312 585.03125 560.997070312 687 611 c 5
 692.575195312 574 694.013671875 516 690 486 c 5
 634.099609375 487.651367188 567.861328125 487.952148438 517 488 c 13
 475 541 l 21
351 45 m 21
 292.846679688 30.921875 172.095703125 -24.0087890625 171.66015625 -106.14453125 c 4
 171.321528492 -170.003196905 243.0234375 -205.37890625 357.799804688 -198.712890625 c 4
 426.669921875 -194.712890625 520.071289062 -145.645507812 520.071289062 -78.5380859375 c 4
 520.071289062 60.2900390625 230.845703125 60.7626953125 67 46.7880859375 c 5
 69 113 l 5
 99 148 155 198 211 240 c 5
 251 216 l 5
 220 193 191.397460938 159.08203125 161 126 c 5
 387.934570312 156.102539062 636.467773438 126.79296875 635.25390625 -35.34375 c 4
 634.18359375 -178.364257812 458.000976562 -264.379882812 305.907226562 -265.24609375 c 4
 156.54296875 -266.096679688 39.1142578125 -223.643554688 38.6875 -132.228515625 c 4
 38.015625 11.6806640625 255.303710938 65.033203125 358.662109375 80.2421875 c 4
 351 45 l 21
440.759765625 411.188476562 m 4
 440.759765625 484.5078125 403.372070312 558.1484375 302.224609375 558.1484375 c 4
 233.801757812 558.1484375 172.729492188 498.283203125 172.729492188 413.743164062 c 4
 172.729492188 321.896484375 231.07421875 271.01953125 315.58984375 271.01953125 c 4
 389.826171875 271.01953125 440.759765625 331.7578125 440.759765625 411.188476562 c 4
559.09375 453.286132812 m 4
 559.09375 301.490234375 431.084960938 213.063476562 295.465820312 213.063476562 c 4
 150.465820312 213.063476562 55.451171875 266.000976562 54.744140625 377.9921875 c 4
 53.853515625 519.149414062 189.806640625 610.5859375 331.556640625 610.5859375 c 4
 446.807617188 610.5859375 559.09375 571.178710938 559.09375 453.286132812 c 4
EndSplineSet
Fore
SplineSet
495 525 m 17
 524.642578125 527.012695312 605.03125 550.997070312 707 611 c 1
 712.575195312 574 714.013671875 516 710 486 c 1
 654.099609375 487.651367188 587.861328125 487.952148438 537 488 c 9
 495 525 l 17
213 13 m 17
 179.892424139 -7.43575565695 157.227768356 -45.7051515891 157.455809397 -78.9999992053 c 0
 158.054710035 -166.441739314 250.981123068 -197.540294507 386.799804688 -178.712890625 c 0
 461.700195312 -168.330078125 520.071289062 -125.645507812 520.071289062 -78.5380859375 c 0
 520.071289062 60.2900390625 173.198242188 -20.1259765625 97 36.7880859375 c 0
 63.603515625 61.732421875 69 119 69 119 c 1
 99 154 154 201 211 240 c 1
 261 226 l 1
 230 203 190.397460938 153.08203125 180 120 c 1
 436.934570312 140.102539062 636.467773438 120.79296875 635.25390625 -41.34375 c 0
 634.18359375 -184.364257812 452.001779137 -251.524826931 299.907226562 -252.24609375 c 0
 120.54296875 -253.096679688 41.3256507272 -213.606845047 38.6875 -122.228515625 c 0
 37.015625 -64.3193359375 105.303710938 26.033203125 208.662109375 41.2421875 c 0
 213 13 l 17
463.759765625 426.188476562 m 0
 463.759765625 499.5078125 425.372070312 558.1484375 337.224609375 558.1484375 c 0
 268.801757812 558.1484375 188.729492188 498.283203125 188.729492188 403.743164062 c 0
 188.729492188 311.896484375 240.912109375 273.158203125 315.58984375 274.01953125 c 0
 399.659179688 274.989257812 463.759765625 346.7578125 463.759765625 426.188476562 c 0
579.09375 453.286132812 m 0
 579.09375 301.490234375 445.084960938 217.063476562 309.465820312 217.063476562 c 0
 164.465820312 217.063476562 75.451171875 266.000976562 74.744140625 377.9921875 c 0
 73.853515625 519.149414062 209.806640625 610.5859375 351.556640625 610.5859375 c 0
 466.807617188 610.5859375 579.09375 571.178710938 579.09375 453.286132812 c 0
EndSplineSet
Layer: 2
SplineSet
473 541 m 17
 502.642578125 543.012695312 575.03125 560.997070312 677 611 c 1
 682.575195312 574 684.013671875 514 680 484 c 1
 624.099609375 485.651367188 565.861328125 485.952148438 515 486 c 9
 473 541 l 17
232 9 m 17
 193.846679688 -5.078125 162.095703125 -40.0087890625 161.66015625 -82.14453125 c 0
 161 -146 213.830078125 -187.712890625 328.799804688 -187.712890625 c 0
 437.669921875 -187.712890625 520.071289062 -145.645507812 520.071289062 -78.5380859375 c 0
 520.071289062 -32.4404296875 494.779296875 6.521484375 419 6.658203125 c 0
 373.678710938 6.740234375 282.13671875 -14.6240234375 233.065429688 -14.6240234375 c 0
 91.703125 -14.6240234375 21.5859375 20.77734375 19 86.7880859375 c 0
 15.234375 182.895507812 112.053010007 236.017670002 209 245 c 1
 284 213 l 1
 233 203 125.311523438 193.75 121 135 c 0
 115.129882812 55.0029296875 359.790039062 113.04296875 442.943359375 113.04296875 c 0
 564.607421875 113.04296875 636.012695312 57.54296875 635.25390625 -36.34375 c 0
 634.098632812 -179.36328125 467.999023438 -251.0625 275.907226562 -252.24609375 c 0
 166.541992188 -252.919921875 41.341796875 -232.642578125 40.6875 -131.228515625 c 0
 40.08203125 -37.3193359375 121.303710938 29.033203125 224.662109375 44.2421875 c 0
 232 9 l 17
438.759765625 411.188476562 m 0
 438.759765625 484.5078125 403.372070312 558.1484375 302.224609375 558.1484375 c 0
 233.801757812 558.1484375 182.729492188 498.283203125 182.729492188 413.743164062 c 0
 182.729492188 321.896484375 231.07421875 271.01953125 315.58984375 271.01953125 c 0
 389.826171875 271.01953125 438.759765625 331.7578125 438.759765625 411.188476562 c 0
557.09375 453.286132812 m 0
 557.09375 301.490234375 431.084960938 213.063476562 295.465820312 213.063476562 c 0
 150.465820312 213.063476562 65.451171875 266.000976562 64.744140625 377.9921875 c 0
 63.853515625 519.149414062 189.806640625 610.5859375 331.556640625 610.5859375 c 0
 446.807617188 610.5859375 557.09375 571.178710938 557.09375 453.286132812 c 0
EndSplineSet
Layer: 3
EndChar

StartChar: H
Encoding: 72 72 18
GlifName: H_
Width: 863
VWidth: 79
Flags: HW
LayerCount: 4
Back
Fore
SplineSet
521 759 m 1
 513 820 l 1
 629.390625 810.34375 710.663085938 814.086914062 817 820 c 1
 822 769 l 1
 804 770 744 769 740 674 c 1
 616 683 l 1
 609 731 597 763 521 759 c 1
67 759 m 1
 61 820 l 1
 173.858398438 811.616210938 252.920898438 814.82421875 361 820 c 1
 371 769 l 1
 353 770 284 769 286 674 c 1
 160 683 l 1
 153 731 143 763 67 759 c 1
194 463 m 1
 564 463.868164062 l 5
 708 471 l 1
 708 400 l 1
 194 397 l 1
 194 463 l 1
779 1 m 1
 585 0 l 1
 585 0 604 72 612 136 c 1
 624 298 621 603 611 788 c 1
 753 813 l 1
 728 613 728.133557109 208.061743594 731 145 c 0
 733 101 713 49 795 49 c 1
 779 1 l 1
498 58 m 1
 574 54 609 92 613 140 c 1
 731 139 l 1
 728 49 794 49 813 50 c 1
 823 0 l 1
 508 0 l 1
 498 58 l 1
322 1 m 1
 127 0 l 1
 127 0 146 72 154 136 c 1
 166 298 166 603 156 788 c 1
 299 813 l 1
 274 613 270 208 274 145 c 0
 277 101 256 49 338 49 c 1
 322 1 l 1
42 61 m 1
 118 57 148 89 155 137 c 1
 274 146 l 1
 272 51 348 50 366 51 c 1
 376 0 l 1
 52 0 l 1
 42 61 l 1
EndSplineSet
Layer: 2
Layer: 3
EndChar

StartChar: A
Encoding: 65 65 19
GlifName: A_
Width: 863
VWidth: 79
Flags: HW
LayerCount: 4
Back
Fore
SplineSet
285 366 m 5
 608 374 l 5
 608 311 l 5
 285 308 l 5
 285 366 l 5
42 61 m 5
 123.422792227 52.1356425144 144.604492188 85.75 164 136 c 4
 256.9921875 376.924804688 326 613 381 798 c 5
 420.333007812 804.305664062 467.666992188 816.022460938 507 829 c 5
 567.802734375 618.80859375 637 418 736.958007812 150.053710938 c 4
 754.052325215 104.230879807 775.1484375 42.955078125 843 55 c 5
 853 0 l 5
 585 0 l 5
 517 0 l 5
 507 64 l 5
 578.248046875 53.4609375 629.143990683 65.1256913254 613.369140625 123.864257812 c 4
 579.81640625 248.799804688 504.260742188 425.809570312 461.649414062 571 c 4
 453.66796875 609.5703125 438.82421875 665.341796875 430.8515625 705.974609375 c 5
 371.046875 497.575195312 278.676261856 210.375662454 264 145 c 4
 242.556641865 49.4801900498 318.494557809 50.4719198783 366 51 c 5
 376 0 l 5
 127 0 l 5
 52 0 l 5
 42 61 l 5
EndSplineSet
Layer: 2
Layer: 3
EndChar

StartChar: B
Encoding: 66 66 20
GlifName: B_
Width: 719
VWidth: 79
Flags: HW
LayerCount: 4
Back
Fore
SplineSet
488 569 m 0
 521.719726562 677.540039062 451.374023438 764.534179688 355 767 c 0
 308.621563665 768.18661456 274.367748145 758.791201339 251.676977612 750.074799016 c 1
 243.436971643 672.628485778 247.263140567 557.741402765 246.301757812 460.076171875 c 1
 347.258789062 459.206054688 455.625976562 464.791015625 488 569 c 0
546 229 m 0
 545.615032425 316.04200502 475.181015952 393.044574722 370.149414062 395.606445312 c 0
 327.513121342 396.64640531 279.23167228 392.048734076 244.326454553 385.276939723 c 1
 243.424748779 285.691300496 242.9609375 196.865234375 253.397460938 122.84765625 c 1
 259.963867188 65.1826171875 305.028320312 60.6728515625 358 61.0263671875 c 0
 471.314453125 61.7822265625 546.44264997 128.915880141 546 229 c 0
23 61 m 1
 101.803710938 51.2734375 132.94921875 77.185546875 135 127.385742188 c 0
 143.765625 342 147 488 139 648 c 0
 136.110351562 705.798828125 119 762 27 755 c 1
 17 818 l 1
 205.36328125 806.268554688 246.477539062 822.853515625 396 823 c 0
 551.009765625 823.15234375 623.615234375 747.517578125 620 628 c 0
 618.0546875 563.680664062 567.813476562 462.61328125 470.62109375 431.576171875 c 1
 472.631835938 447 l 1
 612.763671875 410.9140625 669.66796875 322.6015625 668.4921875 220 c 0
 666.287109375 27.7685546875 521.204101562 -0.1728515625 320 0.029296875 c 1
 252.19921875 -1.056640625 106.894472553 -0.0066045963563 33 0 c 1
 23 61 l 1
EndSplineSet
Layer: 2
SplineSet
488 569 m 4
 521.719726562 677.540039062 451.374023438 764.534179688 355 767 c 4
 308.621563665 768.18661456 274.367748145 758.791201339 251.676977612 750.074799016 c 5
 243.436971643 672.628485778 247.263140567 557.741402765 246.301757812 460.076171875 c 5
 347.258789062 459.206054688 455.625976562 464.791015625 488 569 c 4
546 229 m 4
 542.740919396 314.013535687 484.181015952 387.044574722 370.149414062 395.606445312 c 4
 327.62015114 398.799683322 279.23167228 391.048734076 244.326454553 385.276939723 c 5
 243.424748779 285.691300496 242.9609375 196.865234375 253.397460938 122.84765625 c 5
 259.963867188 65.1826171875 300.112122459 57.0320159845 352.999994717 60.0265624583 c 4
 472.314762808 66.782243918 549.605377724 134.953259493 546 229 c 4
23 61 m 5
 101.803710938 51.2734375 132.94921875 77.185546875 135 127.385742188 c 4
 143.765625 342 147 488 139 648 c 4
 136.110351562 705.798828125 119 762 27 755 c 5
 17 818 l 5
 205.36328125 806.268554688 246.477539062 822.853515625 396 823 c 4
 551.009765625 823.15234375 623.615234375 747.517578125 620 628 c 4
 618.0546875 563.680664062 571.813942618 476.61286309 491.620729196 441.575904484 c 5
 495.350344259 440.418440611 499.020577192 439.226456518 502.631466322 438.000016943 c 5
 614.763881474 399.914208541 669.668185198 328.601305203 668.4921875 226 c 4
 666.287423392 33.7685693105 521.204101562 -0.1728515625 320 0.029296875 c 5
 252.19921875 -1.056640625 106.894472553 -0.0066045963563 33 0 c 5
 23 61 l 5
EndSplineSet
Layer: 3
EndChar

StartChar: W
Encoding: 87 87 21
GlifName: W_
Width: 1251
VWidth: 79
Flags: HW
LayerCount: 4
Back
Fore
SplineSet
674 684 m 0
 581.0078125 443.075195312 512 193 457 8 c 1
 417.666992188 1.6943359375 370.333007812 -10.0224609375 331 -23 c 1
 270.197265625 187.19140625 201 402 101.041992188 669.946289062 c 0
 83.947265625 715.76953125 62.8515625 768.044921875 -5 756 c 5
 -15 820 l 1
 100.922851562 816.077148438 233.076171875 812.924804688 321 820 c 1
 331 756 l 1
 259.751953125 766.5390625 208.856445312 754.874023438 224.630859375 696.135742188 c 0
 258.18359375 571.200195312 333.739257812 390.190429688 376.350585938 245 c 0
 384.33203125 206.4296875 399.17578125 140.658203125 407.1484375 100.025390625 c 1
 466.953125 308.424804688 559.32421875 609.624023438 574 675 c 0
 674 684 l 0
1261 759 m 1
 1179.57714844 767.864257812 1158.39550781 734.25 1139 684 c 0
 1046.0078125 443.075195312 978 193 923 8 c 1
 883.666992188 1.6943359375 836.333007812 -10.0224609375 797 -23 c 1
 736.197265625 187.19140625 675 402 575.041992188 669.946289062 c 0
 557.947265625 715.76953125 536.8515625 777.044921875 469 765 c 1
 459 820 l 1
 727 820 l 1
 795 820 l 1
 805 756 l 1
 733.751953125 766.5390625 682.856445312 754.874023438 698.630859375 696.135742188 c 0
 732.18359375 571.200195312 799.739257812 390.190429688 842.350585938 245 c 0
 850.33203125 206.4296875 865.17578125 140.658203125 873.1484375 100.025390625 c 1
 932.953125 308.424804688 1024.32421875 609.624023438 1039 675 c 0
 1060.44335938 770.51953125 984.505859375 769.528320312 937 769 c 1
 927 820 l 1
 1176 820 l 1
 1251 820 l 1
 1261 759 l 1
EndSplineSet
Layer: 2
Layer: 3
EndChar

StartChar: c
Encoding: 99 99 22
GlifName: c
Width: 586
VWidth: 79
Flags: HW
LayerCount: 4
Back
SplineSet
162.008789062 329 m 4
 160.752929688 206.052734375 203.002929688 64.431640625 342.008789062 62 c 4
 407.018554688 60.8623046875 461 91 498.008789062 126 c 5
 529.008789062 92 l 5
 477.107421875 28 403 -15 299.008789062 -15 c 4
 149.999023438 -15 39.095703125 69.8994140625 38.0087890625 231 c 4
 36.8349609375 404.986328125 129.033203125 598.454101562 375 598.419921875 c 4
 473.018554688 598.40625 536 569 536 569 c 5
 538.323242188 531.447265625 535.184570312 459.194335938 528 414 c 5
 448 416 l 5
 444.5078125 448.768554688 434.641601562 503.46484375 412.951171875 537.573242188 c 5
 463 475.360351562 l 5
 463 475.360351562 405.149414062 533.848632812 316 532.705078125 c 4
 227.120117188 531.565429688 163.444335938 469.541015625 162.008789062 329 c 4
EndSplineSet
Fore
SplineSet
162.008789062 325 m 0
 160.01953125 202.0625 203.002929688 64.431640625 337.008789062 62 c 0
 402.018554688 60.8203125 461 86 498.008789062 121 c 1
 529.008789062 87 l 1
 477.107421875 23 403 -15 299.008789062 -15 c 0
 149.999023438 -15 39.095703125 68.8994140625 38.0087890625 230 c 0
 36.8349609375 403.986328125 132.033203125 598.454101562 375 598.419921875 c 0
 473.018554688 598.40625 536 569 536 569 c 1
 538.323242188 531.447265625 535.184570312 461.194335938 528 416 c 1
 448 418 l 1
 446.5078125 460.768554688 440.641601562 503.46484375 421.951171875 537.573242188 c 1
 473 435.360351562 l 1
 451.154296875 479.959960938 398.95703125 533.854492188 317 532.705078125 c 0
 238.120117188 531.599609375 164.444335938 475.541015625 162.008789062 325 c 0
EndSplineSet
Layer: 2
Layer: 3
EndChar

StartChar: w
Encoding: 119 119 23
GlifName: w
Width: 1025
VWidth: 79
Flags: HW
LayerCount: 4
Back
Fore
SplineSet
1032 538 m 1
 972.022460938 535.735351562 964.107421875 508.028320312 943.810546875 455.861328125 c 0
 875 279 793.959960938 70.9033203125 756.661132812 -9.3837890625 c 9
 653.399414062 -25.650390625 l 1
 614.270507812 85.927734375 563.459960938 245.581054688 483.497070312 482.43359375 c 1
 464.303710938 526.984375 449.650390625 537.875976562 403 532 c 1
 385 596 l 5
 496 591.78125 573 593.904296875 667 596 c 1
 677 542 l 5
 616 546 596 525 611 460 c 1
 610.7265625 459.962890625 l 1
 638.463867188 361.939453125 663.78125 291.842773438 688.678710938 197 c 1
 699.244140625 161.912109375 715 71 712.991210938 77 c 1
 744.858398438 148.987304688 795.057617188 292.979492188 858.733398438 458.791992188 c 1
 881.560546875 516.806640625 837.559570312 535.975585938 770 533 c 1
 761 596 l 1
 857.666992188 590.463867188 927.333007812 590.002929688 1021 596 c 1
 1032 538 l 1
579.810546875 455.861328125 m 0
 511 279 409.959960938 70.9033203125 372.661132812 -9.3837890625 c 9
 269.399414062 -25.650390625 l 1
 230.270507812 85.927734375 189.459960938 225.581054688 109.497070312 462.43359375 c 1
 90.3037109375 526.984375 58.650390625 532.875976562 12 532 c 1
 4 596 l 1
 124 586.78125 220 588.904296875 326 596 c 1
 340 542 l 1
 284 546 207 538 231 460 c 1
 230.7265625 459.962890625 l 1
 258.463867188 361.939453125 285.78125 291.842773438 310.678710938 197 c 1
 321.244140625 161.912109375 338 68 335.991210938 74 c 1
 367.858398438 145.987304688 435.057617188 292.979492188 498.733398438 458.791992188 c 0
 579.810546875 455.861328125 l 0
EndSplineSet
Layer: 2
Layer: 3
EndChar

StartChar: V
Encoding: 86 86 24
GlifName: V_
Width: 779
VWidth: 79
Flags: HW
LayerCount: 4
Back
SplineSet
846.319335938 759.60546875 m 5
 750.118164062 756.4921875 737.75390625 709.79296875 708.333984375 638.686523438 c 4
 607.73828125 395.549804688 492.083007812 92.47265625 440.807617188 -17.900390625 c 13
 305.850585938 -35.2626953125 l 5
 262.05859375 118.126953125 166.208007812 445.11328125 95.28125 640.72265625 c 5
 65.8955078125 722.461914062 19.380859375 750.809570312 -44.751953125 749.60546875 c 5
 -55.7490234375 819.33984375 l 5
 100.969726562 810.166015625 230.194335938 812.083984375 366.913085938 819.33984375 c 5
 380.16015625 755.104492188 l 5
 275.680664062 746.856445312 215.693359375 731.734375 236.314453125 642.375976562 c 5
 235.938476562 642.325195312 l 5
 272.0703125 507.569335938 310.123046875 375.205078125 355.350585938 244.821289062 c 5
 369.875 196.584960938 390.53515625 66.734375 387.7734375 74.982421875 c 5
 430.33203125 173.946289062 539.463867188 422.768554688 613.000976562 650.715820312 c 5
 635.381835938 730.470703125 565.267578125 756.823242188 472.391601562 752.731445312 c 5
 460.018554688 819.33984375 l 5
 592.91015625 811.728515625 698.3046875 813.844726562 831.196289062 819.33984375 c 5
 846.319335938 759.60546875 l 5
EndSplineSet
Fore
SplineSet
789 758 m 1
 707.577148438 766.864257812 686.395507812 733.25 667 683 c 0
 574.0078125 442.075195312 505 193 450 8 c 1
 410.666992188 1.6943359375 363.333007812 -10.0224609375 324 -23 c 1
 263.197265625 187.19140625 194 401 94.0419921875 668.946289062 c 0
 76.947265625 714.76953125 55.8515625 776.044921875 -12 764 c 1
 -22 819 l 1
 89.9999999952 813.681375781 232.000000004 813.302280164 314 819 c 5
 324 755 l 1
 252.751953125 765.5390625 201.856445312 753.874023438 217.630859375 695.135742188 c 0
 251.18359375 570.200195312 326.739257812 390.190429688 369.350585938 245 c 0
 377.33203125 206.4296875 392.17578125 140.658203125 400.1484375 100.025390625 c 1
 459.953125 308.424804688 552.32421875 608.624023438 567 674 c 0
 588.443359375 769.51953125 512.505859375 768.528320312 465 768 c 1
 455 819 l 1
 565.698343336 814.501715792 676.136932038 810.4364566 779 819 c 1
 789 758 l 1
EndSplineSet
Layer: 2
SplineSet
789 755 m 5
 707.577148438 763.864257812 686.395507812 730.25 667 680 c 4
 574.0078125 439.075195312 505 193 450 8 c 5
 410.666992188 1.6943359375 363.333007812 -10.0224609375 324 -23 c 5
 263.197265625 187.19140625 194 398 94.0419921875 665.946289062 c 4
 76.947265625 711.76953125 55.8515625 773.044921875 -12 761 c 5
 -22 816 l 5
 246 816 l 5
 314 816 l 5
 324 752 l 5
 252.751953125 762.5390625 201.856445312 750.874023438 217.630859375 692.135742188 c 4
 251.18359375 567.200195312 326.739257812 390.190429688 369.350585938 245 c 4
 377.33203125 206.4296875 392.17578125 140.658203125 400.1484375 100.025390625 c 5
 459.953125 308.424804688 552.32421875 605.624023438 567 671 c 4
 588.443359375 766.51953125 512.505859375 765.528320312 465 765 c 5
 455 816 l 5
 704 816 l 5
 779 816 l 5
 789 755 l 5
EndSplineSet
Layer: 3
EndChar

StartChar: C
Encoding: 67 67 25
GlifName: C_
Width: 766
VWidth: 79
Flags: HW
LayerCount: 4
Back
Fore
SplineSet
199.546875 443.4375 m 0
 196.6875 265.322265625 253.606445312 87.1103515625 460.859375 83.78515625 c 0
 549.763671875 82.3583984375 632.41796875 118.60546875 683.02734375 166.467773438 c 1
 723.419921875 122.97265625 l 1
 652.444335938 35.4521484375 551.102539062 -16.5126953125 408.89453125 -16.5126953125 c 0
 205.124023438 -16.5126953125 58.4619140625 98.2197265625 56.9765625 318.525390625 c 0
 55.3720703125 556.451171875 180.555664087 822.38591328 512.8125 822.338867188 c 0
 643.852539062 822.3203125 732.98046875 782.107421875 732.98046875 782.107421875 c 1
 736.157226562 730.75390625 731.865234375 634.68359375 722.040039062 572.879882812 c 1
 612.639648438 575.615234375 l 1
 610.599609375 634.100585938 602.577148438 692.48828125 577.018554688 739.131835938 c 1
 646.827148438 629.35546875 l 1
 616.953125 690.345703125 545.57421875 744.045898438 433.497070312 742.474609375 c 0
 325.62890625 740.962890625 202.69140625 639.305664062 199.546875 443.4375 c 0
EndSplineSet
Layer: 2
Layer: 3
EndChar

StartChar: q
Encoding: 113 113 26
GlifName: q
Width: 688
VWidth: 79
Flags: HW
LayerCount: 4
Back
Fore
SplineSet
309 -156 m 1
 320.8515625 -157.403320312 331.875976562 -158.125976562 342.05859375 -158.125976562 c 0
 397.174804688 -158.125976562 425.624023438 -136.956054688 429 -88 c 1
 548 -69 l 1
 547.791992188 -72.771484375 547.69140625 -76.39453125 547.69140625 -79.8759765625 c 0
 547.69140625 -156.043945312 586.818359375 -170.215820312 634.6640625 -170.215820312 c 4
 637.716796875 -170.215820312 640.525390625 -170.1171875 643 -170 c 5
 653 -218 l 5
 317 -218 l 1
 309 -156 l 1
551.25390625 583 m 1
 536.96875 478.624023438 542.67578125 21.58203125 549.142578125 -102.331054688 c 0
 551.596679688 -149.350585938 493.580078125 -162 565.991210938 -161 c 1
 630.991210938 -185 l 5
 547.991210938 -183 414.991210938 -205 414.991210938 -205 c 1
 444.568359375 -36.57421875 439 386.120117188 434.991210938 443 c 0
 429.245117188 524.5390625 441.317382812 570.12890625 362.991210938 558 c 1
 349.991210938 602 l 1
 551.25390625 583 l 1
145 256 m 0
 144.125976562 119.048828125 215.658203125 69.7099609375 278 71 c 0
 335.049804688 72.1806640625 405.283203125 116.734375 441 201 c 1
 475 160 l 1
 427.098632812 47 321.88671875 -7.9111328125 237 -8 c 0
 91.990234375 -8.15234375 15 90 21 261 c 0
 27.0419921875 433.197265625 110.265625 615.203125 340 617 c 0
 438.060546875 617.766601562 508 600 551 583 c 1
 479 453 l 1
 479 453 414.22265625 574.157226562 297 553 c 0
 215.168945312 538.23046875 146.170898438 439.454101562 145 256 c 0
EndSplineSet
Layer: 2
Layer: 3
EndChar

StartChar: f
Encoding: 102 102 27
GlifName: f
Width: 469
VWidth: 79
Flags: HW
LayerCount: 4
Back
Fore
SplineSet
16 61 m 1
 92 57 128 78 132 136 c 1
 246 152 l 1
 244 57 336 53 364 54 c 1
 374 0 l 1
 23 0 l 1
 16 61 l 1
29 522 m 1
 19 588 l 1
 160.5078125 583.043945312 252.553763309 585.5001931 384 591 c 1
 397 525 l 1
 205 523.526367188 l 5
 139 439.640625 l 1
 139.884765625 506.45703125 134.655273438 531.84765625 29 522 c 1
179 126 m 1
 131 117 l 1
 138 279 141.012695312 398.844726562 132 603 c 0
 121.497070312 840.9140625 290.131312333 856.606023047 384 856 c 0
 454.639648438 855.543945312 508 829 508 829 c 1
 514.097371914 773.247646186 511.364278951 720.152942268 505 667 c 1
 420 674 l 1
 421 745 400 791 362 800.916992188 c 1
 287.939453125 800.431640625 245.172851562 738.985351562 241 601 c 0
 235.635742188 423.604492188 235.344726562 251.282226562 251 112 c 1
 179 126 l 1
EndSplineSet
Layer: 2
Layer: 3
SplineSet
16 61 m 1
 92 57 131 78 135 136 c 1
 246 152 l 1
 244 57 336 53 364 54 c 1
 374 0 l 1
 23 0 l 1
 16 61 l 1
2 527 m 1
 -8 588 l 1
 384 591 l 1
 397 525 l 1
 205 526.526367188 l 1
 129 444.640625 l 1
 129.884765625 511.45703125 107.655273438 536.84765625 2 527 c 1
172 126 m 1
 134 117 l 1
 141 279 124.012695312 398.844726562 125 603 c 0
 126.151367188 841.142578125 260.129882812 856.42578125 354 856 c 0
 454.639909151 855.543511955 538 819 538 819 c 1
 539.501953125 769.6484375 534.340820312 717.354492188 527 673 c 1
 439 679 l 1
 437.137695312 706.5 431.61328125 785.322265625 423.85546875 821 c 1
 421.845703125 825.858398438 452.609375 720.547851562 450.126953125 725 c 1
 436.666015625 749.142578125 422.973632812 801.221679688 352 800.916992188 c 0
 277.938476562 800.598632812 245.172851562 738.985351562 241 601 c 0
 235.635742188 423.604492188 235.344726562 251.282226562 251 112 c 1
 172 126 l 1
EndSplineSet
EndChar

StartChar: Agrave
Encoding: 192 192 30
GlifName: A_grave
Width: 1000
VWidth: 0
Flags: H
LayerCount: 4
Back
Fore
SplineSet
347 1296 m 29
 341 1086 l 25
 899 1294 l 25
 881 1444 l 25
 347 1296 l 29
EndSplineSet
Layer: 2
Layer: 3
EndChar

StartChar: y
Encoding: 121 121 31
GlifName: y
Width: 681
VWidth: 79
Flags: HW
LayerCount: 4
Back
Fore
SplineSet
334 52 m 9
 405 50 l 17
 379.393096142 -8.60643819613 342.068359375 -95.2177734375 308.928710938 -158 c 1
 268.625976562 -235.383789062 217.951171875 -266.837890625 133 -263 c 1
 95.4072265625 -230.930664062 101.967773438 -163.34375 113 -143 c 1
 277.401367188 -137.401367188 299.989257812 -42.9892578125 334 52 c 9
676 538 m 1
 606.022460938 535.735351562 599.863888353 507.310413037 577.810546875 455.861328125 c 0
 502 279 426.959960938 95.9033203125 389.661132812 15.6162109375 c 1
 360.434570312 12.3447265625 297.2734375 -3.1806640625 263.399414062 -7.650390625 c 1
 224.270507812 103.927734375 183.459960938 225.581054688 103.497070312 462.43359375 c 1
 84.3037109375 526.984375 52.650390625 538.875976562 6 538 c 1
 -2 596 l 1
 112 590.78125 206 592.904296875 320 596 c 1
 334 542 l 1
 258 536 210 525 225 460 c 1
 224.7265625 459.962890625 l 1
 252.463867188 361.939453125 277.78125 296.842773438 308.678710938 202 c 1
 319.244140625 166.912109375 340 60 337.991210938 66 c 1
 374.858398438 137.987304688 458.057617188 352.979492188 491.733398438 458.791992188 c 1
 509.560546875 517.806640625 471.559570312 535.975585938 404 533 c 1
 395 596 l 1
 491.666992188 590.463867188 568.333007812 592.002929688 665 596 c 1
 676 538 l 1
EndSplineSet
Layer: 2
Layer: 3
EndChar
